<?xml version="1.0" encoding="utf-8"?>
<!-- Generator: Adobe Illustrator 22.0.1, SVG Export Plug-In . SVG Version: 6.00 Build 0)  -->
<svg version="1.1" id="Layer_1" xmlns="http://www.w3.org/2000/svg" xmlns:xlink="http://www.w3.org/1999/xlink" x="0px" y="0px"
	 viewBox="0 0 730 420" style="enable-background:new 0 0 730 420;" xml:space="preserve">
<style type="text/css">
	.st0{fill:#FFFFFF;}
</style>
<g>
	<path class="st0" d="M597.9,104.6c-4.7-5.4-10.1-9.5-16.1-12.5c-6.1-2.9-12.2-4.4-18.5-4.4h-86.8v119.6h90c6.6,0,12.7-1.6,18.5-4.7
		s10.7-7.4,14.8-12.7c4.2-5.4,7.5-11.7,9.9-19c2.4-7.3,3.6-15.1,3.6-23.4c0-8.7-1.4-16.6-4.2-23.9
		C606.3,116.3,602.5,109.9,597.9,104.6z"/>
	<path class="st0" d="M0,0v420h730V0H0z M230,265v129h-71.2v-130L25.1,24.7h78l91,177.8l92.6-177.8h77.5L230,265z M622.6,393.9
		l-75.4-123.8h-70.7v123.8h-71.8V24.7H568c17,0,32.7,3.6,47.1,10.7c14.4,7.1,26.8,16.5,37.2,28.1c10.4,11.6,18.5,24.8,24.4,39.5
		c5.9,14.7,8.8,29.6,8.8,44.5c0,23.9-6,45.7-17.9,65.3c-12,19.6-28.2,33.7-48.6,42.4l84.2,138.8H622.6z"/>
</g>
</svg>
