<?xml version="1.0" encoding="utf-8"?>
<!-- Generator: Adobe Illustrator 22.0.1, SVG Export Plug-In . SVG Version: 6.00 Build 0)  -->
<svg version="1.1" id="Layer_1" xmlns="http://www.w3.org/2000/svg" xmlns:xlink="http://www.w3.org/1999/xlink" x="0px" y="0px"
	 viewBox="0 0 48 48" style="enable-background:new 0 0 48 48;" xml:space="preserve">
<style type="text/css">
	.st0{fill:#98CA4F;}
</style>
<g>
	<path class="st0" d="M42,28.7c-0.1,0.1-0.2,0.2-0.3,0.2c0.2-0.9,0.4-1.9,0.5-2.9c4.2-0.5,6.2-3.2,5.7-7.9l-0.1-0.6l-0.6,0.1
		c-2.6,0.3-4.4,1.7-5.3,3.8c-0.2-1-0.4-2-0.7-3c3.5-2.2,4-5.5,1.6-9.5l-0.3-0.5l-0.5,0.3c-2,1.2-3.1,3-3.1,5.1c-0.5-0.7-1-1.4-1.6-2
		c1-4.1-0.9-6.9-5.5-8.1l-0.5-0.1l-0.1,0.5c-0.9,3.7,1,6.8,4.9,8c3.2,3.3,5,7.6,5,12.3c0,7.1-4.2,13.4-10.8,16.1l0.4,1
		c1.1-0.5,2.1-1,3.1-1.7l0,0c1.4,1,2.7,1.6,4.1,1.6c0.1,0,0.2,0,0.3,0c1.9-0.1,3.6-1.3,5.2-3.4l0.3-0.4l-0.4-0.3
		c-1.5-1.2-3.3-1.6-5-1.3c-0.1,0-0.2,0-0.3,0.1c0.5-0.6,0.9-1.2,1.3-1.8l0.4,0.1c0.5,0.1,1,0.1,1.4,0.1c1.2,0,2.3-0.3,3.2-0.8
		c1.6-1,2.6-2.8,3-5.5l0.1-0.6L47,27.5C45.1,27.2,43.3,27.6,42,28.7z M42.2,10c1.7,3.1,1.3,5.5-1.2,7.3C39.5,14.4,39.9,11.7,42.2,10
		z M46.9,18.8c0.2,3.5-1.2,5.5-4.2,6.1C42.5,21.6,44,19.4,46.9,18.8z M32.2,5c3.4,1,4.8,3,4.2,6.1C33.3,10.1,31.7,7.8,32.2,5z
		 M38.7,37.1c1.2-0.2,2.5,0,3.6,0.7c-1.3,1.6-2.7,2.4-4.1,2.5c-1,0.1-2.1-0.3-3.2-1C36.1,38.1,37.4,37.3,38.7,37.1z M43.8,32.7
		c-0.9,0.5-1.9,0.7-3.3,0.6c0.3-1.6,1.1-2.9,2.1-3.7c1-0.8,2.2-1.1,3.5-1.1C45.8,30.5,45,31.9,43.8,32.7z"/>
	<path class="st0" d="M7.6,24.4c0-4.6,1.8-9,5-12.3c3.9-1.2,5.9-4.3,4.9-8l-0.1-0.5l-0.5,0.1c-4.6,1.2-6.5,4-5.5,8.1
		c-0.6,0.6-1.1,1.3-1.6,2C9.7,11.8,8.7,10,6.7,8.7L6.2,8.4L5.9,8.9c-1.4,2.3-1.8,4.4-1.3,6.1C5,16.4,6,17.5,7.5,18.4
		c-0.3,1-0.6,2-0.7,3c-0.9-2.2-2.7-3.6-5.3-3.8l-0.6-0.1l-0.1,0.6c-0.5,4.7,1.5,7.5,5.7,7.9C6.6,27,6.8,28,7,28.9
		c-0.1-0.1-0.2-0.2-0.3-0.2c-1.4-1.1-3.1-1.5-5-1.2l-0.6,0.1l0.1,0.6c0.4,2.7,1.4,4.5,3,5.5c0.9,0.6,2,0.8,3.2,0.8
		c0.5,0,0.9,0,1.4-0.1l0.4-0.1c0.4,0.6,0.8,1.2,1.3,1.8c-0.1,0-0.2-0.1-0.3-0.1c-1.7-0.3-3.4,0.1-5,1.3l-0.4,0.3L5.2,38
		c1.6,2.2,3.4,3.3,5.2,3.4c0.1,0,0.2,0,0.3,0c1.3,0,2.7-0.5,4.1-1.6l0,0c1,0.6,2,1.2,3.1,1.7l0.4-1C11.8,37.8,7.6,31.5,7.6,24.4z
		 M5.7,14.7c-0.4-1.3-0.1-2.9,0.9-4.7c2.3,1.7,2.8,4.4,1.2,7.3C6.7,16.5,6,15.7,5.7,14.7z M4.9,32.7c-1.2-0.7-2-2.1-2.4-4.1
		c1.4-0.1,2.6,0.3,3.5,1.1c1,0.8,1.8,2.1,2.1,3.7C6.9,33.4,5.8,33.2,4.9,32.7z M16.6,5c0.5,2.8-1.1,5.1-4.2,6.1
		C11.8,8,13.2,6,16.6,5z M1.9,18.8c2.8,0.5,4.4,2.8,4.2,6.1C3.1,24.3,1.7,22.4,1.9,18.8z M10.5,40.4c-1.4-0.1-2.7-0.9-4.1-2.5
		c1.1-0.7,2.4-1,3.6-0.7c1.3,0.2,2.5,1,3.6,2.3C12.6,40.1,11.5,40.4,10.5,40.4z"/>
	<path class="st0" d="M28,33.7h8V15.3H12.4v18.4h8c0.2,0.5,0.6,0.9,1,1.2v9.3l2.8-2.8l2.8,2.8v-9.3C27.4,34.6,27.7,34.2,28,33.7z
		 M13.5,32.6V16.5h21.4v16.1h-6.5c0.1-0.3,0.1-0.6,0.1-0.9c0-2.4-1.9-4.3-4.3-4.3s-4.3,1.9-4.3,4.3c0,0.3,0,0.6,0.1,0.9H13.5z
		 M25.9,41.5l-1.7-1.7l-1.7,1.7v-5.9c0.5,0.2,1.1,0.3,1.7,0.3s1.2-0.1,1.7-0.3V41.5z"/>
	<rect x="18.2" y="20.6" class="st0" width="12" height="1.1"/>
	<rect x="20.4" y="23.6" class="st0" width="7.5" height="1.1"/>
</g>
</svg>
