<?xml version="1.0" encoding="utf-8"?>
<!-- Generator: Adobe Illustrator 22.0.1, SVG Export Plug-In . SVG Version: 6.00 Build 0)  -->
<svg version="1.1" id="Layer_1" xmlns="http://www.w3.org/2000/svg" xmlns:xlink="http://www.w3.org/1999/xlink" x="0px" y="0px"
	 viewBox="0 0 48 48" style="enable-background:new 0 0 48 48;" xml:space="preserve">

	 <style type="text/css">
	 	.st0{fill:rgba(255, 255, 255, 0.65);}
 	</style>
<g>
	<path class="st0" d="M18.3,19.7v3.6h1.4v-2.9h2.9V19H19C18.6,19,18.3,19.3,18.3,19.7z"/>
	<path class="st0" d="M25.4,19.7v3.6h1.4v-2.9h2.9V19h-3.6C25.8,19,25.4,19.3,25.4,19.7z"/>
	<path class="st0" d="M32.6,19.7v3.6h1.4v-2.9h2.9V19h-3.6C32.9,19,32.6,19.3,32.6,19.7z"/>
	<path class="st0" d="M18.3,26.9v3.6h1.4v-2.9h2.9v-1.4H19C18.6,26.2,18.3,26.5,18.3,26.9z"/>
	<path class="st0" d="M25.4,26.9v3.6h1.4v-2.9h2.9v-1.4h-3.6C25.8,26.2,25.4,26.5,25.4,26.9z"/>
	<path class="st0" d="M32.6,26.9v3.6h1.4v-2.9h2.9v-1.4h-3.6C32.9,26.2,32.6,26.5,32.6,26.9z"/>
	<path class="st0" d="M18.3,34.1v3.6h1.4v-2.9h2.9v-1.4H19C18.6,33.3,18.3,33.7,18.3,34.1z"/>
	<path class="st0" d="M32.6,34.1v3.6h1.4v-2.9h2.9v-1.4h-3.6C32.9,33.3,32.6,33.7,32.6,34.1z"/>
	<path class="st0" d="M18.3,12.5v3.6h1.4v-2.9h2.9v-1.4H19C18.6,11.8,18.3,12.1,18.3,12.5z"/>
	<path class="st0" d="M25.4,12.5v3.6h1.4v-2.9h2.9v-1.4h-3.6C25.8,11.8,25.4,12.1,25.4,12.5z"/>
	<path class="st0" d="M32.6,12.5v3.6h1.4v-2.9h2.9v-1.4h-3.6C32.9,11.8,32.6,12.1,32.6,12.5z"/>
	<path class="st0" d="M41.3,45.6v-7.9h2.2c0.4,0,0.7-0.3,0.7-0.7v-2.2h-1.4v1.4h-1.4v-5.8h2.2c0.4,0,0.7-0.3,0.7-0.7v-2.2h-1.4V29
		h-1.4v-5.8h2.2c0.4,0,0.7-0.3,0.7-0.7v-2.2h-1.4v1.4h-1.4v-5.8h2.2c0.4,0,0.7-0.3,0.7-0.7v-2.2h-1.4v1.4h-1.4V6.8
		c0-0.4-0.3-0.7-0.7-0.7h-4.3V1.7c0-0.4-0.3-0.7-0.7-0.7H19.7C19.3,1,19,1.3,19,1.7V6h-4.3c-0.4,0-0.7,0.3-0.7,0.7v38.8H5.3V20.4
		h1.4h1.4h4.3V19H8.2v-2.9h4.3v-1.4h-5c-0.4,0-0.7,0.3-0.7,0.7V19H4.6c-0.4,0-0.7,0.3-0.7,0.7v25.9H1V47h2.9h1.4h8.6h1.4h9.3h5.8
		h9.3h1.4H47v-1.4H41.3z M20.4,2.4h14.4V6H20.4V2.4z M25.4,45.6v-5h4.3v5H25.4z M31.2,45.6v-5.8c0-0.4-0.3-0.7-0.7-0.7h-5.8
		c-0.4,0-0.7,0.3-0.7,0.7v5.8h-8.6V7.5h4.3h15.8h4.3v7.2v1.4v5.8v1.4V29v1.4v5.8v1.4v7.9H31.2z"/>
</g>
</svg>
