<?xml version="1.0" encoding="utf-8"?>
<!-- Generator: Adobe Illustrator 22.0.1, SVG Export Plug-In . SVG Version: 6.00 Build 0)  -->
<svg version="1.1" id="Layer_1" xmlns="http://www.w3.org/2000/svg" xmlns:xlink="http://www.w3.org/1999/xlink" x="0px" y="0px"
	 viewBox="0 0 48 48" style="enable-background:new 0 0 48 48;" xml:space="preserve">
<style type="text/css">
	.st0{fill:rgba(255, 255, 255, 0.65);}
</style>
<path class="st0" d="M47.3,29c0.4,0,0.7-0.3,0.7-0.7v-3.6c0-0.2-0.1-0.5-0.3-0.6l-1.9-1.4v-5.5c0-0.4-0.3-0.7-0.7-0.7h-4.4
	c-0.4,0-0.7,0.3-0.7,0.7v1.3l-4.7-3.4c-0.3-0.2-0.6-0.2-0.9,0l-12.5,8.9c-0.2,0.1-0.3,0.4-0.3,0.6v3.6c0,0.4,0.3,0.7,0.7,0.7h1.5
	v12.5c0,0,0,0,0,0c-1.7,1-3.2,1.9-4.2,2.8c-2.8-1.5-5.3-2.3-7.6-2.8v-5.2c2.7-0.6,4.1-4.8,4.1-12.4c0-4.6-1.2-13.2-4.1-13.2
	c-0.1,0-0.2,0-0.3,0.1c-1.1-4.5-2.9-8.1-4.9-8.1C3.8,2.5,1,11.6,1,18.7C1,28.1,2.8,33.4,6.1,34v6.7c-1.4,0-2.8,0-4.4,0H1v1.5h0.7
	c6.5,0,10.8,0,17.6,3.6c0.1,0.1,0.2,0.1,0.3,0.1c0.2,0,0.4-0.1,0.5-0.2c3.8-3.8,19.3-10,27-10H48v-1.5h-0.7c-0.5,0-1,0-1.5,0.1V29
	H47.3z M14.6,23.8c0,6.9-1.2,11.1-3.3,11.1c-0.3,0-1.2,0-2-1.6c2.3-1.9,3.4-6.8,3.4-14.5c0-2.1-0.2-4.4-0.7-6.6
	C13,12.4,14.6,17.5,14.6,23.8z M2.5,18.7C2.5,11,5.5,4,6.9,4s4.4,7,4.4,14.7c0,8.8-1.6,13.9-4.4,13.9S2.5,27.6,2.5,18.7z M7.6,34
	C7.8,34,7.9,34,8,33.9c0.7,1.5,1.7,2.1,2.5,2.3v4.9c-1-0.2-1.9-0.3-2.9-0.3V34z M41.4,19.4V18h2.9v3.7l-3-2.1
	C41.4,19.5,41.4,19.5,41.4,19.4z M37,36.1c-1.5,0.4-2.9,0.9-4.4,1.5v-4.9H37V36.1z M38.5,35.7v-3.8c0-0.4-0.3-0.7-0.7-0.7h-5.9
	c-0.4,0-0.7,0.3-0.7,0.7v6.2c-2.1,0.8-4.1,1.7-5.9,2.6V28.2c0-0.4-0.3-0.7-0.7-0.7H23V25l11.8-8.4L46.5,25v2.5h-1.5
	c-0.4,0-0.7,0.3-0.7,0.7v6.2C42.5,34.7,40.5,35.1,38.5,35.7z"/>
</svg>
