<?xml version="1.0" encoding="utf-8"?>
<!-- Generator: Adobe Illustrator 22.0.1, SVG Export Plug-In . SVG Version: 6.00 Build 0)  -->
<svg version="1.1" id="Layer_1" xmlns="http://www.w3.org/2000/svg" xmlns:xlink="http://www.w3.org/1999/xlink" x="0px" y="0px"
	 viewBox="0 0 48 48" style="enable-background:new 0 0 48 48;" xml:space="preserve">
<style type="text/css">
	.st0{fill:rgba(255, 255, 255, 0.65);}
</style>
<g>
	<path class="st0" d="M11.5,18.9h1.1v8.9c0,0.4,0.3,0.7,0.7,0.7h13.1c0.4,0,0.7-0.3,0.7-0.7v-8.9h1.1c0.4,0,0.7-0.2,0.8-0.5
		c0.1-0.3,0.1-0.7-0.2-1c0,0,0,0,0,0l-2.5-2.6v-3.5c0-0.6-0.5-1.1-1.1-1.1h-1.8c-0.4,0-0.8,0.2-1,0.6l-2.2-2.3
		c-0.3-0.3-0.8-0.3-1.1,0l-8.5,8.9c-0.2,0.3-0.3,0.6-0.2,1C10.8,18.7,11.1,18.9,11.5,18.9z M24,11.9v-0.3h1v3.4
		c0,0.2,0.1,0.4,0.2,0.5l1.8,1.8h0c-0.7,0-1.2,0.5-1.2,1.2V27h-6.1v-3.2c0-1.3-1.1-2.4-2.4-2.4s-2.4,1.1-2.4,2.4V27H14v-8.4
		c0-0.7-0.5-1.2-1.2-1.2h0l7.1-7.4l2.4,2.5c0.3,0.3,0.7,0.4,1,0.2C23.7,12.7,24,12.3,24,11.9z M16.3,26.9v-3.1
		c0-0.5,0.4-0.9,0.9-0.9c0.5,0,0.9,0.4,0.9,0.9v3.1H16.3z"/>
	<path class="st0" d="M20.5,20.2v3.4c0,0.4,0.3,0.7,0.7,0.7H24c0.4,0,0.7-0.3,0.7-0.7v-3.4c0-0.4-0.3-0.7-0.7-0.7h-2.7
		C20.9,19.5,20.5,19.8,20.5,20.2z M22,21h1.2v1.9H22V21z"/>
	<path class="st0" d="M19.9,36.3c4.2,0,8.1-1.5,11.1-4.1l0.9,0.9l-0.4,0.4c-0.9,0.9-0.9,2.3,0,3.1l9.6,9.6c0.4,0.4,1,0.6,1.6,0.6
		c0.6,0,1.1-0.2,1.6-0.6l2.1-2.1c0.4-0.4,0.6-1,0.6-1.6c0-0.6-0.2-1.1-0.6-1.6l-9.6-9.6c-0.4-0.4-1-0.6-1.6-0.6
		c-0.6,0-1.1,0.2-1.6,0.6l-0.4,0.4L32.3,31c3-3.1,4.8-7.3,4.8-11.9C37.1,9.7,29.4,2,19.9,2S2.7,9.7,2.7,19.2S10.4,36.3,19.9,36.3z
		 M35.2,32.6c0.1,0,0.2,0,0.3,0.1l9.6,9.6c0.1,0.1,0.1,0.2,0.1,0.3s0,0.2-0.1,0.3L43,45.1c-0.2,0.2-0.5,0.2-0.6,0l-9.6-9.6
		c-0.2-0.2-0.2-0.5,0-0.6l2.1-2.1C34.9,32.7,35,32.6,35.2,32.6z M19.9,3.8c8.5,0,15.4,6.9,15.4,15.4s-6.9,15.4-15.4,15.4
		c-8.5,0-15.4-6.9-15.4-15.4S11.4,3.8,19.9,3.8z"/>
</g>
</svg>
