<?xml version="1.0" encoding="utf-8"?>
<!-- Generator: Adobe Illustrator 22.0.1, SVG Export Plug-In . SVG Version: 6.00 Build 0)  -->
<svg version="1.1" id="Layer_1" xmlns="http://www.w3.org/2000/svg" xmlns:xlink="http://www.w3.org/1999/xlink" x="0px" y="0px"
	 viewBox="0 0 48 48" style="enable-background:new 0 0 48 48;" xml:space="preserve">
<style type="text/css">
	.st0{fill:rgba(255, 255, 255, 0.65);}
</style>
<g>
	<path class="st0" d="M33.8,12.2C33.8,12.2,33.8,12.2,33.8,12.2c0,0,0-0.1,0-0.1c0,0,0,0,0,0c0,0,0,0,0-0.1c0,0,0,0,0,0
		c0,0,0-0.1-0.1-0.1l-9.4-9.4c0,0-0.1,0-0.1-0.1c0,0,0,0,0,0c0,0,0,0-0.1,0c0,0,0,0,0,0c0,0-0.1,0-0.1,0c0,0,0,0,0,0
		c0,0-0.1,0-0.1,0c0,0,0,0,0,0H4.6C4.3,2.3,4,2.6,4,2.9v43.5C4,46.7,4.3,47,4.6,47h28.6c0.3,0,0.6-0.3,0.6-0.6v-34c0,0,0,0,0,0
		C33.8,12.3,33.8,12.3,33.8,12.2z M24.4,4.4l7.3,7.3h-7.3V4.4z M5.2,45.8V3.5h17.9v8.8c0,0.3,0.3,0.6,0.6,0.6h8.8v32.8H5.2z"/>
	<path class="st0" d="M8.3,13h12.3c0.3,0,0.6-0.3,0.6-0.6V6.5c0-0.3-0.3-0.6-0.6-0.6H8.3c-0.3,0-0.6,0.3-0.6,0.6v5.8
		C7.7,12.7,7.9,13,8.3,13z M8.9,7.2H20v4.6H8.9V7.2z"/>
	<path class="st0" d="M8.1,17.5h1.6c0.3,0,0.6-0.3,0.6-0.6c0-0.3-0.3-0.6-0.6-0.6H8.1c-0.3,0-0.6,0.3-0.6,0.6
		C7.4,17.2,7.7,17.5,8.1,17.5z"/>
	<path class="st0" d="M17.3,16.9c0-0.3-0.3-0.6-0.6-0.6h-2.5h-2.5c-0.3,0-0.6,0.3-0.6,0.6c0,0.3,0.3,0.6,0.6,0.6h2.5h2.5
		C17,17.5,17.3,17.2,17.3,16.9z"/>
	<path class="st0" d="M18,16.9c0,0.3,0.3,0.6,0.6,0.6h5.1c0.3,0,0.6-0.3,0.6-0.6c0-0.3-0.3-0.6-0.6-0.6h-5.1
		C18.2,16.2,18,16.5,18,16.9z"/>
	<path class="st0" d="M29.7,16.2h-1.6h-2.5c-0.3,0-0.6,0.3-0.6,0.6c0,0.3,0.3,0.6,0.6,0.6h2.5h1.6c0.3,0,0.6-0.3,0.6-0.6
		C30.4,16.5,30.1,16.2,29.7,16.2z"/>
	<path class="st0" d="M8.1,21.2h3.6c0.3,0,0.6-0.3,0.6-0.6s-0.3-0.6-0.6-0.6H8.1c-0.3,0-0.6,0.3-0.6,0.6S7.7,21.2,8.1,21.2z"/>
	<path class="st0" d="M23.9,20.5c0-0.3-0.3-0.6-0.6-0.6h-8.7c-0.3,0-0.6,0.3-0.6,0.6c0,0.3,0.3,0.6,0.6,0.6h8.7
		C23.6,21.2,23.9,20.9,23.9,20.5z"/>
	<path class="st0" d="M29.7,19.9h-3.6c-0.3,0-0.6,0.3-0.6,0.6s0.3,0.6,0.6,0.6h3.6c0.3,0,0.6-0.3,0.6-0.6S30.1,19.9,29.7,19.9z"/>
	<path class="st0" d="M8.1,24.9h1.6c0.3,0,0.6-0.3,0.6-0.6c0-0.3-0.3-0.6-0.6-0.6H8.1c-0.3,0-0.6,0.3-0.6,0.6
		C7.4,24.6,7.7,24.9,8.1,24.9z"/>
	<path class="st0" d="M12,23.6c-0.3,0-0.6,0.3-0.6,0.6c0,0.3,0.3,0.6,0.6,0.6h3.1c0.3,0,0.6-0.3,0.6-0.6c0-0.3-0.3-0.6-0.6-0.6H12z"
		/>
	<path class="st0" d="M17.4,23.6c-0.3,0-0.6,0.3-0.6,0.6c0,0.3,0.3,0.6,0.6,0.6h3.1c0.3,0,0.6-0.3,0.6-0.6c0-0.3-0.3-0.6-0.6-0.6
		H17.4z"/>
	<path class="st0" d="M22.7,24.9h3.1c0.3,0,0.6-0.3,0.6-0.6c0-0.3-0.3-0.6-0.6-0.6h-3.1c-0.3,0-0.6,0.3-0.6,0.6
		C22.1,24.6,22.4,24.9,22.7,24.9z"/>
	<path class="st0" d="M29.7,23.6h-1.6c-0.3,0-0.6,0.3-0.6,0.6c0,0.3,0.3,0.6,0.6,0.6h1.6c0.3,0,0.6-0.3,0.6-0.6
		C30.4,23.9,30.1,23.6,29.7,23.6z"/>
	<path class="st0" d="M29.7,27.6H8.1c-0.3,0-0.6,0.3-0.6,0.6v14.5c0,0.3,0.3,0.6,0.6,0.6h21.7c0.3,0,0.6-0.3,0.6-0.6V28.2
		C30.4,27.9,30.1,27.6,29.7,27.6z M29.1,32.6v2.2h-3v-2.2H29.1z M24.9,34.8h-3.3v-2.2h3.3V34.8z M20.3,34.8H17v-2.2h3.3V34.8z
		 M12.4,36.1h3.3v2.2h-3.3V36.1z M17,36.1h3.3v2.2H17V36.1z M15.7,34.8h-3.3v-2.2h3.3V34.8z M12.4,39.5h3.3v2.5h-3.3V39.5z M17,39.5
		h3.3v2.5H17V39.5z M21.6,39.5h3.3v2.5h-3.3V39.5z M21.6,38.3v-2.2h3.3v2.2H21.6z M26.1,36.1h3v2.2h-3V36.1z M29.1,31.4H12.4v-2.5
		h16.7V31.4z M11.1,28.8v2.5H8.7v-2.5H11.1z M8.7,32.6h2.4v2.8c0,0,0,0,0,0c0,0,0,0,0,0v3.4c0,0,0,0,0,0s0,0,0,0v3.1H8.7V32.6z
		 M26.1,42.1v-2.5h3v2.5H26.1z"/>
	<path class="st0" d="M44.2,12.4h-1.8V10c0-0.3-0.3-0.6-0.6-0.6h-0.5V6.2c0-0.3-0.3-0.6-0.6-0.6h-2.2c-0.3,0-0.6,0.3-0.6,0.6v3.1
		h-0.5c-0.2,0-0.3,0.1-0.4,0.2c-0.1,0.1-0.2,0.3-0.2,0.4l0,3.1c0,0,0,0,0,0c0,0,0,0,0,0l0,27.6c0,1.4,0.9,2.5,2.2,2.9v1.4
		c0,0.3,0.3,0.6,0.6,0.6s0.6-0.3,0.6-0.6v-1.4c1.3-0.4,2.2-1.5,2.2-2.9v-27h1.2v8.2c0,0.3,0.3,0.6,0.6,0.6c0.3,0,0.6-0.3,0.6-0.6V13
		C44.8,12.7,44.6,12.4,44.2,12.4z M38,10.6h3.2v1.8H38L38,10.6z M39.1,6.9h1v2.5h-1V6.9z M39.6,42.4c-0.9-0.1-1.6-0.9-1.6-1.8l0-1.8
		h3.2v1.8C41.2,41.5,40.5,42.3,39.6,42.4z M41.2,37.6H38l0-23.9h3.2V37.6z"/>
</g>
</svg>
